<?xml version="1.0" standalone="no"?><!DOCTYPE svg PUBLIC "-//W3C//DTD SVG 1.1//EN" "http://www.w3.org/Graphics/SVG/1.1/DTD/svg11.dtd"><svg class="icon" width="200px" height="200.00px" viewBox="0 0 1024 1024" version="1.1" xmlns="http://www.w3.org/2000/svg"><path fill="#ffffff" d="M839.1168 298.2912h-115.5584v-43.9808a92.16 92.16 0 0 0-92.16-92.16H396.544a92.16 92.16 0 0 0-92.16 92.16v43.9808H188.8768a92.16 92.16 0 0 0-92.16 92.16v444.6208a92.16 92.16 0 0 0 92.16 92.16h650.24a92.16 92.16 0 0 0 92.16-92.16V390.4512a92.16 92.16 0 0 0-92.16-92.16z m-473.2928-43.9808a30.72 30.72 0 0 1 30.72-30.72h234.8544a30.72 30.72 0 0 1 30.72 30.72v43.9808H365.824zM188.8768 359.7312h650.24a30.72 30.72 0 0 1 30.72 30.72v76.1344h-711.68V390.4512a30.72 30.72 0 0 1 30.72-30.72z m385.6896 168.2944a67.84 67.84 0 0 1-121.1392 0z m264.5504 337.92h-650.24a30.72 30.72 0 0 1-30.72-30.72v-307.2h230.0928a129.4336 129.4336 0 0 0 251.4432 0h230.144v307.2a30.72 30.72 0 0 1-30.72 30.5664z"  /></svg>