<?xml version="1.0" standalone="no"?><!DOCTYPE svg PUBLIC "-//W3C//DTD SVG 1.1//EN" "http://www.w3.org/Graphics/SVG/1.1/DTD/svg11.dtd"><svg class="icon" width="200px" height="200.00px" viewBox="0 0 1024 1024" version="1.1" xmlns="http://www.w3.org/2000/svg"><path fill="#333333" d="M935.24992 902.4l-458.24-793.55392c-2.85696-5.06368-9.27232-7.53664-14.84288-5.98016-5.61152 1.48992-9.89696 6.5536-9.89696 12.34432v793.6c0 7.02976 6.5792 19.61984 13.70624 19.61984h458.1632c4.54656 0 8.8064-5.87264 11.10016-9.8048 2.26304-4.01408 2.26304-12.30336 0.01024-16.22528zM479.57504 901.12v-122.88h9.37984c7.10144 0 12.80512-6.63552 12.80512-13.64992 0-7.12192-5.69344-13.66016-12.80512-13.66016h-9.37984v-40.96h34.97984c7.1168 0 12.77952-6.58944 12.77952-13.60896 0-7.14752-5.6576-13.69088-12.77952-13.69088h-34.97984v-54.62016h9.37984c7.10144 0 12.80512-6.6048 12.80512-13.64992 0-7.11168-5.69344-13.64992-12.80512-13.64992h-9.37984v-54.62016h34.97984c7.1168 0 12.77952-6.5792 12.77952-13.64992 0-7.11168-5.6576-13.64992-12.77952-13.64992h-34.97984v-40.96h9.37984c7.10144 0 12.80512-6.60992 12.80512-13.63968 0-7.1168-5.69344-13.6704-12.80512-13.6704h-9.37984V395.94496h34.97984c7.1168 0 12.77952-6.60992 12.77952-13.65504 0-7.11168-5.6576-13.65504-12.77952-13.65504h-34.97984V314.02496h9.37984c7.10144 0 12.80512 0.2304 12.80512-6.81472 0-7.1168-5.69344-6.84032-12.80512-6.84032h-9.37984V162.97984L901.98016 901.12H479.57504z m114.38592-109.23008h108.5184c4.57216 0 8.8064-1.61792 11.12576-5.53984a12.3392 12.3392 0 0 0 0-12.36992l-108.58496-187.70432c-2.8928-5.02272-11.84768-7.33696-17.41824-5.81632-5.632 1.44384-12.45184 6.58944-12.45184 12.46208v187.89888c0 7.01952 11.6992 11.06944 18.81088 11.06944z m8.48896-151.23456l77.85472 123.93472h-77.85472v-123.93472zM240.62464 102.4256c-70.57408 0-129.69472 57.44128-129.69472 127.9744v499.22048c0 2.39104 4.12672 4.79232 5.47328 6.88128l116.9152 179.21536c2.31936 3.6864 7.24992 5.89824 11.57632 5.89824 4.3008 0 8.82176-2.21696 11.12576-5.89824l113.7152-179.21536c1.36704-2.0992 0.59904-4.5056 0.59904-6.89152V282.6496c0-0.13312-0.2304-0.32768-0.2304-0.47616 0-0.2304 0.2304-0.30208 0.2304-0.57344V230.4c0.01024-70.53312-59.14624-127.9744-129.71008-127.9744zM138.24 341.33504h95.57504v382.29504H138.24V341.33504z m107.52 546.37568L228.08064 860.16h35.35872L245.76 887.71072z m34.13504-54.8608H211.584L153.96864 737.28H337.5104l-57.61536 95.56992zM343.04 723.63008H261.12V341.33504h81.92v382.29504z m0-409.60512H138.24v-13.65504h204.8v13.65504z m0-40.96H138.24V230.4c0-56.45824 45.94176-102.4 102.41536-102.4C297.14944 128 343.04 173.94176 343.04 230.4v42.66496z" /></svg>