<?xml version="1.0" standalone="no"?><!DOCTYPE svg PUBLIC "-//W3C//DTD SVG 1.1//EN" "http://www.w3.org/Graphics/SVG/1.1/DTD/svg11.dtd"><svg class="icon" width="200px" height="200.00px" viewBox="0 0 1024 1024" version="1.1" xmlns="http://www.w3.org/2000/svg"><path fill="#ffffff" d="M470.08 662.56l17.76 64.992a32 32 0 0 1-8.256 31.072l-32 32a32 32 0 0 1-45.248 0l-168.96-168.896a32 32 0 0 1-0.064-45.184l32-32.192a32 32 0 0 1 31.072-8.32l64.928 17.728 81.024-80.992-176.256-96.736a32 32 0 0 1-7.232-50.656l43.904-43.904a32 32 0 0 1 30.08-8.512l249.6 59.68 56.64-56.64C669.376 245.76 712.64 224 746.464 224c15.2 0 28.736 4.224 38.976 14.464 17.536 17.536 17.92 44.416 8.32 73.184-8.64 25.92-25.568 52.864-45.856 73.152l-57.12 57.088 60.096 261.28a32 32 0 0 1-11.968 32.768l-43.424 32.576a32 32 0 0 1-47.232-10.176l-97.088-176.8-81.056 81.024z m-47.424 62.56l-19.2-63.616a32 32 0 0 1 8.256-31.04l124.32-124.32a32 32 0 0 1 50.656 7.2l95.712 176.48-57.952-250.88a32 32 0 0 1 8.544-29.76l69.632-69.664c13.376-13.376 24.96-31.776 30.4-48.096-14.784 3.84-34.24 15.392-48.704 29.856l-69.312 69.28a32 32 0 0 1-30.048 8.512l-253.504-55.232 179.04 93.344a32 32 0 0 1 7.232 50.688l-124.32 124.288a32 32 0 0 1-31.04 8.256l-61.344-18.048 121.6 122.752z" /></svg>