<?xml version="1.0" standalone="no"?><!DOCTYPE svg PUBLIC "-//W3C//DTD SVG 1.1//EN" "http://www.w3.org/Graphics/SVG/1.1/DTD/svg11.dtd"><svg class="icon" width="200px" height="200.00px" viewBox="0 0 1024 1024" version="1.1" xmlns="http://www.w3.org/2000/svg"><path fill="#ffffff" d="M880.55808 240h-129.42336C742.28736 123.95008 638.5664 32 512 32c-126.54592 0-230.272 91.9552-239.13472 208H143.44192c-61.44 0-111.44192 51.28192-111.44192 114.304v507.392c0 63.03744 50.00192 114.304 111.44192 114.304h737.11616c61.45536 0 111.44192-51.26656 111.44192-114.304V354.304c0-63.0272-49.98656-114.304-111.44192-114.304zM512 64c108.83072 0 198.272 77.6192 207.11936 176H304.88064C313.728 141.61408 403.1488 64 512 64z m448 797.696c0 45.37344-35.65056 82.304-79.44192 82.304H143.44192c-43.81184 0-79.44192-36.92544-79.44192-82.304v-253.87008c29.056 38.87616 75.16672 64.17408 127.15008 64.17408h641.69984c51.99872 0 98.09408-25.31328 127.15008-64.17408V861.696zM832.84992 640H191.15008C121.04192 640 64 582.57408 64 512V354.304c0-45.37344 35.6352-82.304 79.44192-82.304h737.11616c43.79136 0 79.44192 36.93056 79.44192 82.304V512c0 70.57408-57.0368 128-127.15008 128zM512 363.85792c-52.9408 0-96 43.05408-96 96s43.0592 96 96 96 96-43.0592 96-96-43.0592-96-96-96z m0 160c-35.29728 0-64-28.70784-64-64s28.70272-64 64-64 64 28.70272 64 64-28.70272 64-64 64z"  /></svg>