<?xml version="1.0" standalone="no"?><!DOCTYPE svg PUBLIC "-//W3C//DTD SVG 1.1//EN" "http://www.w3.org/Graphics/SVG/1.1/DTD/svg11.dtd"><svg class="icon" width="200px" height="200.00px" viewBox="0 0 1024 1024" version="1.1" xmlns="http://www.w3.org/2000/svg"><path fill="#333333" d="M398.818692 308.764906H191.367239c-15.441215 0-27.96026 12.505735-27.960261 27.960261s12.519046 27.96026 27.960261 27.96026h207.451453c15.454525 0 27.96026-12.505735 27.960261-27.96026s-12.505735-27.96026-27.960261-27.960261zM398.818692 458.260355H191.367239c-15.441215 0-27.96026 12.505735-27.960261 27.96026s12.519046 27.96026 27.960261 27.960261h207.451453c15.454525 0 27.96026-12.505735 27.960261-27.960261s-12.505735-27.96026-27.960261-27.96026zM300.956757 607.756827H191.367239c-15.441215 0-27.96026 12.505735-27.960261 27.960261s12.519046 27.96026 27.960261 27.96026h109.589518c15.454525 0 27.96026-12.505735 27.96026-27.96026s-12.505735-27.96026-27.96026-27.960261zM829.885677 308.764906H622.420913c-15.454525 0-27.96026 12.505735-27.960261 27.960261s12.505735 27.96026 27.960261 27.96026h207.464764c15.454525 0 27.96026-12.505735 27.96026-27.96026s-12.505735-27.96026-27.96026-27.960261zM829.885677 458.260355H622.420913c-15.454525 0-27.96026 12.505735-27.960261 27.96026s12.505735 27.96026 27.960261 27.960261h207.464764c15.454525 0 27.96026-12.505735 27.96026-27.960261s-12.505735-27.96026-27.96026-27.96026zM743.191259 607.756827H622.420913c-15.454525 0-27.96026 12.505735-27.960261 27.960261s12.505735 27.96026 27.960261 27.96026h120.771369c15.454525 0 27.96026-12.505735 27.960261-27.96026-0.001024-15.454525-12.506759-27.96026-27.961284-27.960261z"  /><path fill="#333333" d="M889.082631 113.91441H679.132897c-92.31862 0-142.23303 27.714528-168.663606 62.119122-26.4316-34.404595-76.344985-62.119123-168.664629-62.119122H132.128306c-37.981026 0-68.8911 30.90905-68.891101 68.8911v587.580143c0 37.981026 30.90905 68.8911 68.891101 68.8911h132.238885l77.437471-0.846753c140.703345 0 140.703345 67.690083 140.703345 93.165373 0 15.454525 12.505735 27.96026 27.960261 27.960261s27.96026-12.505735 27.96026-27.960261c0-25.475291 0-93.165373 140.375702-93.165373l210.277377 0.846753c37.981026 0 68.8911-30.90905 68.8911-68.8911V182.80551c0.001024-37.981026-30.908026-68.8911-68.890076-68.8911zM341.504663 782.509479l-209.376357 0.846753c-7.153887 0-12.969555-5.815669-12.969556-12.969555V182.80551c0-7.153887 5.815669-12.969555 12.969556-12.969556h209.676356c140.703345 0 140.703345 72.249444 140.703345 95.977987l0.136177 550.607644c-30.007007-20.487945-74.914618-33.912106-141.139521-33.912106z m560.548547-12.122802c0 7.153887-5.815669 12.969555-12.969555 12.969555H754.168333l-75.034412-0.846753c-65.864495 0-110.613403 13.32382-140.567168 33.685827l-0.136177-550.382389c0-23.728542 0-95.977986 140.703345-95.977987H889.083655c7.153887 0 12.969555 5.815669 12.969555 12.969556v587.582191z"  /></svg>