<?xml version="1.0" standalone="no"?><!DOCTYPE svg PUBLIC "-//W3C//DTD SVG 1.1//EN" "http://www.w3.org/Graphics/SVG/1.1/DTD/svg11.dtd"><svg class="icon" width="200px" height="200.00px" viewBox="0 0 1024 1024" version="1.1" xmlns="http://www.w3.org/2000/svg"><path fill="#ffffff" d="M517.12 56.32v-2.56c2.56-23.04 23.04-40.96 43.52-38.4h2.56c250.88 23.04 445.44 235.52 445.44 491.52 0 271.36-220.16 491.52-491.52 491.52-256 0-465.92-194.56-488.96-445.44v-2.56-2.56c0-23.04 17.92-40.96 40.96-40.96 23.04 0 43.52 17.92 46.08 40.96 23.04 184.32 186.88 363.52 404.48 363.52 232.96 0 407.04-199.68 404.48-404.48C924.16 317.44 773.12 128 563.2 102.4h-2.56c-25.6-2.56-43.52-20.48-43.52-46.08zM28.16 94.72C7.68 74.24 7.68 43.52 25.6 23.04l2.56-2.56C46.08 2.56 76.8 2.56 94.72 20.48l122.88 122.88 81.92-76.8v225.28h-230.4l79.36-79.36-120.32-117.76z m302.08 194.56c-7.68-23.04-2.56-38.4 20.48-51.2s40.96-7.68 56.32 15.36l112.64 176.64 117.76-176.64c12.8-23.04 33.28-28.16 53.76-17.92s28.16 28.16 20.48 53.76l-115.2 176.64H691.2c10.24 7.68 15.36 17.92 15.36 30.72s-5.12 23.04-15.36 30.72h-122.88v51.2H691.2c10.24 7.68 15.36 17.92 15.36 30.72s-5.12 23.04-15.36 30.72h-122.88v128c2.56 35.84-12.8 56.32-46.08 56.32s-48.64-17.92-48.64-56.32v-128h-122.88c-12.8-7.68-17.92-15.36-17.92-30.72s5.12-23.04 17.92-30.72h122.88v-51.2h-122.88c-12.8-7.68-17.92-17.92-17.92-30.72s5.12-23.04 17.92-30.72h94.72l-115.2-176.64z"  /></svg>