<?xml version="1.0" standalone="no"?><!DOCTYPE svg PUBLIC "-//W3C//DTD SVG 1.1//EN" "http://www.w3.org/Graphics/SVG/1.1/DTD/svg11.dtd"><svg t="1566540982534" class="icon" viewBox="0 0 1024 1024" version="1.1" xmlns="http://www.w3.org/2000/svg" p-id="855" xmlns:xlink="http://www.w3.org/1999/xlink" width="200" height="200"><defs><style type="text/css"></style></defs><path d="M791.469995 544.029989c-1.28-129.655997 105.720998-191.859996 110.520997-194.931996-60.155999-87.994998-153.845997-100.089998-187.251996-101.433998-79.738998-8.063-155.573997 46.972999-196.082996 46.972999-40.381999 0-102.841998-45.756999-168.949997-44.539999-86.905998 1.279-167.028997 50.555999-211.825996 128.374998-90.297998 156.661997-23.103 388.839992 64.891999 515.87099 43.004999 62.203999 94.265998 132.087997 161.589997 129.591997 64.826999-2.56 89.337998-41.981999 167.732997-41.981999s100.409998 41.981999 169.012996 40.637999c69.754999-1.28 113.976998-63.419999 156.661997-125.815998 49.404999-72.187999 69.691999-142.006997 70.906999-145.589997-1.535-0.705-136.054997-52.221999-137.398997-207.091996zM662.581997 163.509997C698.291996 120.183998 722.419996 60.027999 715.826996 0c-51.452999 2.112-113.848998 34.301999-150.773997 77.562998-33.149999 38.397999-62.139999 99.641998-54.396999 158.453997 57.467999 4.48 116.152998-29.181999 151.861997-72.442998z" p-id="856"></path></svg>