<?xml version="1.0" standalone="no"?><!DOCTYPE svg PUBLIC "-//W3C//DTD SVG 1.1//EN" "http://www.w3.org/Graphics/SVG/1.1/DTD/svg11.dtd"><svg class="icon" width="200px" height="200.00px" viewBox="0 0 1024 1024" version="1.1" xmlns="http://www.w3.org/2000/svg"><path fill="#333333" d="M881.3 843.3H143.8c-22.1 0-40-17.9-40-40V486.8c0-5.5 4.5-10 10-10s10 4.5 10 10v316.5c0 11 9 20 20 20h737.5c11 0 20-9 20-20v-31.5c0-5.5 4.5-10 10-10s10 4.5 10 10v31.5c0 22-18 40-40 40z m30-186.5c-5.5 0-10-4.5-10-10v-344c0-11-9-20-20-20H143.8c-11 0-20 9-20 20v69.5c0 5.5-4.5 10-10 10s-10-4.5-10-10v-69.5c0-22.1 17.9-40 40-40h737.5c22.1 0 40 17.9 40 40v344c0 5.5-4.5 10-10 10zM113.3 431.3m-16 0a16 16 0 1 0 32 0 16 16 0 1 0-32 0ZM910.8 705.8m-16 0a16 16 0 1 0 32 0 16 16 0 1 0-32 0ZM701.3 959.8c-36.9 0-67-30.1-67-67s30.1-67 67-67 67 30.1 67 67-30.1 67-67 67z m0-114c-25.9 0-47 21.1-47 47s21.1 47 47 47 47-21.1 47-47-21.1-47-47-47z m-378.5 114c-37.2 0-67.5-30.3-67.5-67.5s30.3-67.5 67.5-67.5 67.5 30.3 67.5 67.5-30.3 67.5-67.5 67.5z m0-115c-26.2 0-47.5 21.3-47.5 47.5s21.3 47.5 47.5 47.5 47.5-21.3 47.5-47.5-21.4-47.5-47.5-47.5zM712.8 273.3c-5.5 0-10-4.5-10-10v-159c0-11-9-20-20-20h-344c-11 0-20 9-20 20v158.5c0 5.5-4.5 10-10 10s-10-4.5-10-10V104.3c0-22.1 17.9-40 40-40h344c22.1 0 40 17.9 40 40v159c0 5.5-4.5 10-10 10zM711.3 160.3H308.8c-5.5 0-10-4.5-10-10s4.5-10 10-10h402.5c5.5 0 10 4.5 10 10s-4.5 10-10 10zM210.3 384.3v357.5M210.3 751.8c-5.5 0-10-4.5-10-10V384.3c0-5.5 4.5-10 10-10s10 4.5 10 10v357.5c0 5.5-4.5 10-10 10zM290.3 453.3v219.5M290.3 682.8c-5.5 0-10-4.5-10-10V453.3c0-5.5 4.5-10 10-10s10 4.5 10 10v219.5c0 5.5-4.5 10-10 10zM731.3 453.3v219.5M731.3 682.8c-5.5 0-10-4.5-10-10V453.3c0-5.5 4.5-10 10-10s10 4.5 10 10v219.5c0 5.5-4.5 10-10 10zM811.3 384.3v357.5M811.3 751.8c-5.5 0-10-4.5-10-10V384.3c0-5.5 4.5-10 10-10s10 4.5 10 10v357.5c0 5.5-4.5 10-10 10z" /></svg>