<?xml version="1.0" standalone="no"?><!DOCTYPE svg PUBLIC "-//W3C//DTD SVG 1.1//EN" "http://www.w3.org/Graphics/SVG/1.1/DTD/svg11.dtd"><svg class="icon" width="200px" height="200.00px" viewBox="0 0 1024 1024" version="1.1" xmlns="http://www.w3.org/2000/svg"><path fill="#ffffff" d="M434.56 704.064H256a32 32 0 0 1 0-64h178.56l-41.28-41.28a32 32 0 0 1 45.12-45.12l92.8 92.8a31.936 31.936 0 0 1 1.6 49.92l-94.4 94.4a32 32 0 0 1-45.12-45.44l41.28-41.28z m333.44 96h-128a32 32 0 0 1 0-64h96v-302.4l-224-139.84-224 140.16v78.08a32 32 0 1 1-64 0v-96a32 32 0 0 1 15.04-27.2l256-160a32 32 0 0 1 33.92 0l256 160a32 32 0 0 1 15.04 27.2v352a32 32 0 0 1-32 32z" /></svg>